<?xml version="1.0" standalone="no"?>
 <!DOCTYPE svg PUBLIC "-//W3C//DTD SVG 1.1//EN" 
 "http://www.w3.org/Graphics/SVG/1.1/DTD/svg11.dtd"> 
<svg
  xmlns:svg="http://www.w3.org/2000/svg"
  xmlns="http://www.w3.org/2000/svg"
  xmlns:xlink="http://www.w3.org/1999/xlink"
  version="1.1"
  width="29.700220cm" height="21.000720cm" viewBox="0 0 2970022 2100072">
<title>SVG Picture created as t1-frame.svg date 2023/04/02 13:43:11 </title>
  <desc>Picture generated by PCBNEW </desc>
<g style="fill:#000000; fill-opacity:1.000000;stroke:#000000; stroke-opacity:1.000000;
stroke-linecap:round; stroke-linejoin:round;"
 transform="translate(0 0) scale(1 1)">
</g>
<g style="fill:#000000; fill-opacity:0.0; 
stroke:#000000; stroke-width:0.000000; stroke-opacity:1; 
stroke-linecap:round; stroke-linejoin:round;">
</g>
<g style="fill:#000000; fill-opacity:0.0; 
stroke:#000000; stroke-width:25.400000; stroke-opacity:1; 
stroke-linecap:round; stroke-linejoin:round;">
</g>
<g style="fill:#000000; fill-opacity:1.0; 
stroke:#000000; stroke-width:25.400000; stroke-opacity:1; 
stroke-linecap:round; stroke-linejoin:round;">
<path style="fill:#000000; fill-opacity:1.0; 
stroke:#000000; stroke-width:25.400000; stroke-opacity:1; 
stroke-linecap:round; stroke-linejoin:round;fill-rule:evenodd;"
d="M 1699869.400000,1886699.800000
1701799.800000,1887538.000000
1705178.000000,1889265.200000
1705178.000000,1925485.590000
1702257.000000,1927289.000000
1698472.390000,1928940.000000
1694433.800000,1929600.400000
1690674.600000,1929194.000000
1688591.800000,1928305.000000
1686331.200000,1926552.390000
1684731.000000,1924317.200000
1683638.800000,1921320.000000
1683003.800000,1917332.200000
1682749.800000,1912074.400000
1682724.400000,1909534.400000
1682927.600000,1902752.600000
1683588.000000,1897393.200000
1684705.600000,1893227.600000
1686382.000000,1890078.000000
1688363.200000,1887969.800000
1691639.800000,1886268.000000
1695602.200000,1885836.200000
Z" /> 
<path style="fill:#000000; fill-opacity:1.0; 
stroke:#000000; stroke-width:25.400000; stroke-opacity:1; 
stroke-linecap:round; stroke-linejoin:round;fill-rule:evenodd;"
d="M 1621358.000000,1919542.000000
1621281.800000,1923021.800000
1621027.800000,1925257.000000
1620494.400000,1926730.190000
1619529.200000,1927873.200000
1619453.000000,1927949.400000
1615871.600000,1930260.800000
1611680.600000,1931403.800000
1607438.800000,1931276.800000
1605584.600000,1930718.000000
1602765.200000,1928736.800000
1600911.000000,1925790.400000
1600403.000000,1922412.200000
1600453.800000,1922005.800000
1601012.600000,1919516.600000
1601876.200000,1917586.200000
1602003.200000,1917408.400000
1604644.800000,1915376.400000
1608505.600000,1913877.800000
1613179.200000,1913065.000000
1615643.000000,1912938.000000
1621358.000000,1912938.000000
Z" /> 
<path style="fill:#000000; fill-opacity:1.0; 
stroke:#000000; stroke-width:25.400000; stroke-opacity:1; 
stroke-linecap:round; stroke-linejoin:round;fill-rule:evenodd;"
d="M 1474876.200000,1913954.000000
1474901.600000,1921447.000000
1474952.400000,1927543.000000
1475054.000000,1932445.200000
1475155.600000,1936255.200000
1475333.400000,1939125.400000
1475536.600000,1941259.000000
1475790.600000,1942757.600000
1476095.400000,1943824.400000
1476959.000000,1945983.400000
1477390.800000,1947202.600000
1477416.200000,1947329.600000
1476603.400000,1947431.200000
1474393.600000,1947507.400000
1471015.400000,1947583.600000
1466748.200000,1947634.400000
1462608.000000,1947634.400000
1457807.400000,1947609.000000
1453641.810000,1947583.600000
1450416.000000,1947507.400000
1448384.000000,1947405.800000
1447774.400000,1947329.600000
1448079.200000,1946415.200000
1448815.800000,1944535.600000
1449044.400000,1943951.400000
1449400.000000,1942224.200000
1449704.800000,1939049.200000
1449958.800000,1934655.000000
1450162.000000,1929244.800000
1450314.400000,1923098.000000
1450416.000000,1916417.800000
1450441.400000,1909458.200000
1450441.400000,1902447.800000
1450390.600000,1895615.200000
1450263.600000,1889214.400000
1450085.800000,1883448.600000
1449857.200000,1878571.800000
1449577.800000,1874812.600000
1449247.600000,1872399.600000
1449095.200000,1871840.800000
1447876.000000,1868894.400000
1474876.200000,1868894.400000
Z" /> 
<path style="fill:#000000; fill-opacity:1.0; 
stroke:#000000; stroke-width:25.400000; stroke-opacity:1; 
stroke-linecap:round; stroke-linejoin:round;fill-rule:evenodd;"
d="M 1369898.000000,1840141.600000
1374241.400000,1840192.400000
1377695.800000,1840294.000000
1380007.200000,1840421.000000
1380896.200000,1840573.400000
1380540.600000,1841564.000000
1379651.600000,1843392.800000
1379448.400000,1843748.410000
1378889.600000,1845120.000000
1378457.800000,1847025.000000
1378153.000000,1849717.400000
1377924.400000,1853451.200000
1377746.600000,1858505.800000
1377670.400000,1861274.400000
1377492.600000,1867954.600000
1377416.400000,1872958.400000
1377518.000000,1876387.400000
1377975.200000,1878267.000000
1378889.600000,1878622.600000
1380388.200000,1877555.800000
1382598.000000,1875066.600000
1385671.400000,1871231.200000
1389710.000000,1866075.000000
1389887.800000,1865846.400000
1394586.800000,1859826.600000
1398295.200000,1854949.800000
1401089.200000,1851063.600000
1403121.200000,1847990.200000
1404442.000000,1845577.200000
1405204.000000,1843697.600000
1405432.600000,1842173.600000
1405458.000000,1842021.200000
1405458.000000,1840116.200000
1439798.800000,1840116.200000
1434261.600000,1845831.200000
1432458.200000,1847787.000000
1429943.600000,1850682.600000
1426870.200000,1854314.800000
1423365.000000,1858505.800000
1419580.400000,1863077.800000
1415694.200000,1867827.600000
1411808.000000,1872602.800000
1408150.400000,1877174.800000
1404797.600000,1881391.200000
1401952.800000,1885023.400000
1399743.000000,1887919.000000
1398320.600000,1889900.200000
1397838.000000,1890738.400000
1398320.600000,1891627.400000
1399692.200000,1893684.800000
1401800.400000,1896732.800000
1404518.200000,1900568.200000
1407744.000000,1905038.600000
1411300.000000,1909940.800000
1415059.200000,1915071.600000
1418894.600000,1920304.000000
1422653.800000,1925383.990000
1426235.200000,1930184.600000
1429486.400000,1934502.600000
1432280.400000,1938160.200000
1434464.800000,1940954.200000
1435887.200000,1942681.400000
1440256.000000,1947634.400000
1404594.400000,1947634.400000
1404594.400000,1945069.000000
1404213.400000,1942605.200000
1403222.800000,1939836.600000
1402994.200000,1939354.000000
1402130.600000,1937931.600000
1400428.800000,1935417.000000
1398117.400000,1932064.200000
1395323.400000,1928127.200000
1392275.400000,1923809.200000
1389100.400000,1919415.000000
1386027.000000,1915198.600000
1383233.000000,1911363.200000
1380845.400000,1908188.200000
1379118.200000,1905927.600000
1378203.800000,1904886.200000
1377899.000000,1905343.390000
1377695.800000,1907426.200000
1377594.200000,1911185.400000
1377568.800000,1916595.600000
1377645.000000,1922666.200000
1377746.600000,1928787.600000
1377873.600000,1933486.600000
1378000.600000,1936966.400000
1378229.200000,1939506.400000
1378508.600000,1941335.200000
1378915.000000,1942681.400000
1379448.400000,1943849.800000
1379804.000000,1944459.400000
1381683.600000,1947634.400000
1348892.200000,1947634.400000
1350492.400000,1944484.800000
1350848.000000,1943748.200000
1351127.400000,1942859.200000
1351381.400000,1941716.200000
1351584.600000,1940166.800000
1351737.000000,1938058.600000
1351864.000000,1935264.600000
1351965.600000,1931657.800000
1352016.400000,1927060.400000
1352067.200000,1921370.800000
1352092.600000,1914436.600000
1352092.600000,1896275.600000
1352118.000000,1893888.000000
1352092.600000,1883677.200000
1352092.600000,1875041.200000
1352067.200000,1867802.200000
1352041.800000,1861858.600000
1351965.600000,1857032.600000
1351889.400000,1853197.200000
1351762.400000,1850250.800000
1351610.000000,1847990.200000
1351432.200000,1846339.200000
1351203.600000,1845120.000000
1350924.200000,1844180.200000
1350594.000000,1843418.200000
1350492.400000,1843265.810000
1348892.200000,1840116.200000
1364894.200000,1840116.200000
Z" /> 
<path style="fill:#000000; fill-opacity:1.0; 
stroke:#000000; stroke-width:25.400000; stroke-opacity:1; 
stroke-linecap:round; stroke-linejoin:round;fill-rule:evenodd;"
d="M 1329258.000000,1801178.000000
1740738.000000,1801178.000000
1740738.000000,1968818.000000
1329258.000000,1968818.000000
1329258.000000,1904683.000000
1338554.400000,1904683.000000
1338579.800000,1915630.400000
1338579.800000,1925079.200000
1338605.200000,1933156.400000
1338656.000000,1939963.600000
1338706.800000,1945653.200000
1338783.000000,1950250.600000
1338884.600000,1953959.000000
1338986.200000,1956803.800000
1339113.200000,1958937.400000
1339291.000000,1960461.400000
1339468.800000,1961477.400000
1339697.400000,1962112.400000
1339900.600000,1962391.800000
1340256.200000,1962620.400000
1340942.000000,1962849.000000
1342008.800000,1963026.800000
1343609.000000,1963179.200000
1345844.200000,1963306.200000
1348790.600000,1963407.800000
1352575.200000,1963509.400000
1357299.600000,1963560.200000
1363040.000000,1963636.400000
1369974.210000,1963661.800000
1378127.600000,1963687.200000
1387678.000000,1963712.600000
1411249.200000,1963712.600000
1413078.000000,1963738.000000
1425854.200000,1963712.600000
1437055.600000,1963712.600000
1446783.800000,1963687.200000
1455140.400000,1963661.800000
1462227.000000,1963636.400000
1468119.800000,1963585.600000
1472996.600000,1963509.400000
1476882.800000,1963433.200000
1479930.800000,1963331.600000
1482267.600000,1963179.200000
1483944.000000,1963052.200000
1485087.000000,1962874.400000
1485798.200000,1962671.200000
1486204.600000,1962417.200000
1486230.000000,1962391.800000
1486484.000000,1962010.800000
1486687.200000,1961325.000000
1486865.000000,1960232.800000
1487042.800000,1958607.200000
1487169.800000,1956372.000000
1487271.400000,1953374.800000
1487347.600000,1949539.400000
1487423.800000,1944738.800000
1487474.600000,1938871.400000
1487525.400000,1931861.000000
1487550.800000,1923529.800000
1487550.800000,1913852.400000
1487576.200000,1902651.000000
1487576.200000,1896732.800000
1494916.800000,1896732.800000
1495399.400000,1903895.600000
1496440.800000,1910220.200000
1496745.600000,1911490.200000
1499895.200000,1920329.400000
1504213.200000,1928254.200000
1509623.400000,1935163.000000
1515948.000000,1940878.000000
1523085.400000,1945246.800000
1530502.200000,1948066.200000
1535099.600000,1948904.400000
1540738.400000,1949260.000000
1546783.600000,1949158.400000
1552625.600000,1948625.000000
1557680.200000,1947634.400000
1557858.000000,1947583.600000
1562226.800000,1946110.400000
1567306.800000,1944027.600000
1572386.800000,1941614.600000
1576374.600000,1939404.800000
1576095.200000,1938668.200000
1575130.000000,1936814.000000
1573631.400000,1934172.400000
1571802.600000,1931099.000000
1569872.200000,1927898.600000
1567992.600000,1924901.400000
1566367.000000,1922412.200000
1566087.600000,1922005.800000
1565633.130000,1921345.400000
1575942.800000,1921345.400000
1576196.800000,1927085.800000
1577695.400000,1932673.800000
1580438.600000,1937880.800000
1584401.000000,1942427.400000
1588185.600000,1945272.200000
1593595.800000,1947736.000000
1599793.400000,1949056.800000
1606270.400000,1949209.200000
1612493.400000,1948091.600000
1612518.800000,1948091.600000
1615693.800000,1946872.400000
1618741.800000,1945272.200000
1619656.200000,1944662.600000
1622628.000000,1942478.200000
1622882.000000,1945043.600000
1623136.000000,1947634.400000
1650161.600000,1947634.400000
1648663.000000,1945348.400000
1648256.600000,1944561.000000
1647901.000000,1943494.200000
1647621.600000,1941944.800000
1647418.400000,1939735.000000
1647215.200000,1936712.400000
1647062.800000,1932648.400000
1646910.400000,1927416.000000
1646783.400000,1920786.600000
1646681.800000,1915071.600000
1646610.040000,1911668.000000
1656054.400000,1911668.000000
1656308.400000,1917332.200000
1656867.200000,1922132.800000
1657299.000000,1924164.800000
1659991.400000,1931632.400000
1663826.800000,1937957.000000
1668678.200000,1943037.000000
1674494.800000,1946796.200000
1678914.400000,1948548.800000
1682622.800000,1949183.800000
1687194.800000,1949260.000000
1691944.600000,1948828.200000
1696135.600000,1947913.800000
1697024.600000,1947609.000000
1699996.390000,1946339.000000
1702612.600000,1944967.400000
1703755.600000,1944205.400000
1705609.800000,1942910.000000
1706524.200000,1942808.400000
1706829.000000,1944053.000000
1706854.400000,1945094.400000
1706854.400000,1947634.400000
1734007.000000,1947634.400000
1732483.000000,1944891.200000
1732178.200000,1944230.800000
1731924.200000,1943392.600000
1731695.600000,1942224.200000
1731517.800000,1940598.600000
1731365.400000,1938388.800000
1731213.000000,1935493.200000
1731111.400000,1931759.400000
1731035.200000,1927060.400000
1730959.000000,1921269.200000
1730882.800000,1914284.200000
1730832.000000,1905927.600000
1730781.200000,1896123.200000
1730755.800000,1887741.200000
1730501.800000,1833334.400000
1716557.200000,1833334.400000
1711934.400000,1833359.800000
1707921.200000,1833410.600000
1704873.200000,1833486.800000
1703044.400000,1833588.400000
1702638.000000,1833664.600000
1702917.400000,1834579.000000
1703654.000000,1836433.200000
1703908.000000,1837017.400000
1704365.200000,1838566.800000
1704720.800000,1840751.200000
1704949.400000,1843824.600000
1705101.800000,1848015.600000
1705152.600000,1853578.200000
1705178.000000,1856727.800000
1705152.600000,1862417.400000
1705127.200000,1866608.400000
1705051.000000,1869504.000000
1704898.600000,1871332.800000
1704670.000000,1872247.200000
1704314.400000,1872475.800000
1703857.200000,1872196.400000
1703654.000000,1872018.600000
1699742.400000,1869504.000000
1694662.400000,1867827.600000
1688795.000000,1867091.000000
1687525.000000,1867065.600000
1680311.400000,1867802.200000
1673961.400000,1869935.800000
1668525.800000,1873517.200000
1664030.000000,1878495.600000
1660474.000000,1884871.000000
1657857.800000,1892618.000000
1657273.600000,1895158.000000
1656537.000000,1900034.800000
1656130.600000,1905724.390000
1656054.400000,1911668.000000
1646610.040000,1911668.000000
1646504.000000,1906638.800000
1646326.200000,1899704.600000
1646097.600000,1894091.200000
1645767.400000,1889595.400000
1645310.200000,1886039.400000
1644700.600000,1883220.000000
1643913.200000,1880959.400000
1642871.800000,1879054.400000
1641551.000000,1877301.800000
1639925.400000,1875574.600000
1639087.200000,1874711.000000
1634337.400000,1871129.600000
1628419.200000,1868640.400000
1621459.600000,1867243.400000
1613560.200000,1866989.400000
1604924.200000,1867853.000000
1598193.200000,1869199.200000
1594281.600000,1870113.600000
1590801.800000,1870850.200000
1588160.200000,1871307.400000
1586991.800000,1871434.400000
1585417.000000,1871739.200000
1584934.400000,1872272.600000
1585264.600000,1873441.000000
1586077.400000,1875701.600000
1587220.400000,1878648.000000
1588541.200000,1881848.400000
1589811.200000,1884845.600000
1590878.000000,1887207.800000
1591563.800000,1888503.200000
1591640.000000,1888604.800000
1592681.400000,1888630.200000
1594840.400000,1888147.600000
1597685.200000,1887207.800000
1598117.000000,1887030.000000
1603374.800000,1885455.200000
1608404.000000,1884693.200000
1612899.800000,1884744.000000
1616430.400000,1885633.000000
1617675.000000,1886344.200000
1619935.600000,1889011.200000
1621002.400000,1891830.600000
1621916.800000,1895564.400000
1611680.600000,1896072.400000
1604771.800000,1896605.800000
1599107.600000,1897494.800000
1594281.600000,1898841.000000
1589912.800000,1900746.000000
1587474.400000,1902092.200000
1582699.200000,1905851.400000
1579194.000000,1910474.200000
1576958.800000,1915732.000000
1575942.800000,1921345.400000
1565633.130000,1921345.400000
1564462.000000,1919643.600000
1561566.400000,1922209.000000
1557070.600000,1925587.190000
1552625.600000,1927619.200000
1547723.400000,1928482.800000
1545564.400000,1928559.000000
1542008.400000,1928457.400000
1539392.200000,1927974.800000
1536953.800000,1926984.200000
1535582.200000,1926196.800000
1531111.800000,1922666.200000
1527403.400000,1917814.800000
1524660.210000,1912049.000000
1524279.200000,1910855.200000
1523568.000000,1908035.800000
1523085.400000,1904835.400000
1522831.400000,1900847.600000
1522704.400000,1895666.000000
1522704.400000,1893888.000000
1522755.200000,1888808.000000
1522882.200000,1884998.000000
1523212.400000,1881975.400000
1523720.400000,1879308.400000
1524507.800000,1876565.200000
1524787.200000,1875701.600000
1527454.200000,1869656.400000
1531061.000000,1864830.400000
1535429.800000,1861350.600000
1540484.400000,1859293.200000
1544980.200000,1858734.400000
1550466.600000,1859445.600000
1555546.600000,1861426.800000
1558569.200000,1863484.200000
1560525.000000,1865109.800000
1561896.600000,1866151.200000
1562303.000000,1866354.400000
1562938.000000,1865694.000000
1564258.800000,1863966.800000
1566036.800000,1861452.200000
1568094.200000,1858480.400000
1570151.600000,1855381.600000
1572056.600000,1852460.600000
1573529.800000,1850073.000000
1574418.800000,1848498.200000
1574571.200000,1848066.400000
1573656.800000,1847558.400000
1571624.800000,1846491.600000
1568780.000000,1845069.200000
1567230.600000,1844332.600000
1560448.800000,1841386.200000
1554251.200000,1839532.000000
1548129.800000,1838592.200000
1543710.200000,1838414.400000
1535226.600000,1839074.800000
1527505.000000,1841106.800000
1520342.200000,1844612.010000
1513458.800000,1849692.000000
1511172.800000,1851774.800000
1505534.000000,1857921.600000
1501266.800000,1864500.200000
1498041.000000,1871967.800000
1496745.600000,1876260.400000
1495577.200000,1882305.600000
1494967.600000,1889341.400000
1494916.800000,1896732.800000
1487576.200000,1896732.800000
1487576.200000,1858759.800000
1487550.800000,1850530.200000
1487500.000000,1843545.210000
1487423.800000,1837754.000000
1487296.800000,1833004.200000
1487093.600000,1829219.600000
1486839.600000,1826273.200000
1486509.400000,1824063.400000
1486103.000000,1822514.000000
1485569.600000,1821472.600000
1484960.000000,1820863.000000
1484223.400000,1820583.600000
1483359.800000,1820507.400000
1482343.800000,1820558.200000
1481200.800000,1820609.000000
1480946.800000,1820609.000000
1478483.000000,1820482.000000
1477060.600000,1819897.800000
1475993.800000,1818424.600000
1475308.000000,1817002.200000
1472691.800000,1813243.000000
1469237.400000,1810703.000000
1465224.200000,1809382.200000
1460982.400000,1809229.800000
1456842.200000,1810296.600000
1453083.000000,1812531.800000
1450060.400000,1815935.400000
1449120.600000,1817662.600000
1447698.200000,1820634.400000
1383537.800000,1820634.400000
1374190.610000,1820659.800000
1366291.200000,1820685.200000
1359712.600000,1820710.600000
1354327.800000,1820786.800000
1350035.200000,1820863.000000
1346682.400000,1820964.600000
1344167.800000,1821091.600000
1342339.000000,1821244.000000
1341119.800000,1821447.200000
1340357.800000,1821675.800000
1339900.600000,1821955.200000
1339900.600000,1821980.600000
1339646.600000,1822336.200000
1339443.400000,1823022.000000
1339265.600000,1824114.200000
1339087.800000,1825739.800000
1338960.800000,1828000.400000
1338859.200000,1830997.600000
1338783.000000,1834833.000000
1338706.800000,1839633.600000
1338656.000000,1845475.600000
1338605.200000,1852511.400000
1338579.800000,1860817.200000
1338579.800000,1870520.000000
1338554.400000,1881721.400000
1338554.400000,1904683.000000
1329258.000000,1904683.000000
Z" /> 
</g>
<g style="fill:#000000; fill-opacity:1.0; 
stroke:#000000; stroke-width:1500.000000; stroke-opacity:1; 
stroke-linecap:round; stroke-linejoin:round;">
</g>
<g style="fill:#000000; fill-opacity:0.0; 
stroke:#000000; stroke-width:1500.000000; stroke-opacity:1; 
stroke-linecap:round; stroke-linejoin:round;">
<path d="M1300000 1660000
L1770000 1660000
" />
<path d="M1770000 1660000
L1770000 1980000
" />
<path d="M1770000 1980000
L1300000 1980000
" />
<path d="M1300000 1980000
L1300000 1660000
" />
<path d="M2610000 1915000
L2610000 1980000
" />
<path d="M1970000 1915000
L1970000 1945000
" />
<text x="1780000.000000" y="1687500.000000"
textLength="337664.290000" font-size="20000.000000" lengthAdjust="spacingAndGlyphs"
text-anchor="start" opacity="0">An example of KiBot variants</text>
<g class="stroked-text"><desc>An example of KiBot variants</desc>
<path d="M1783832 1682500
L1790975 1682500
" />
<path d="M1782403 1686785
L1787403 1671785
L1792403 1686785
" />
<path d="M1797403 1676785
L1797403 1686785
" />
<path d="M1797403 1678214
L1798117 1677500
L1799546 1676785
L1801689 1676785
L1803117 1677500
L1803832 1678928
L1803832 1686785
" />
<path d="M1828117 1686071
L1826689 1686785
L1823832 1686785
L1822403 1686071
L1821689 1684642
L1821689 1678928
L1822403 1677500
L1823832 1676785
L1826689 1676785
L1828117 1677500
L1828832 1678928
L1828832 1680357
L1821689 1681785
" />
<path d="M1833832 1686785
L1841689 1676785
" />
<path d="M1833832 1676785
L1841689 1686785
" />
<path d="M1853832 1686785
L1853832 1678928
L1853117 1677500
L1851689 1676785
L1848832 1676785
L1847403 1677500
" />
<path d="M1853832 1686071
L1852403 1686785
L1848832 1686785
L1847403 1686071
L1846689 1684642
L1846689 1683214
L1847403 1681785
L1848832 1681071
L1852403 1681071
L1853832 1680357
" />
<path d="M1860975 1686785
L1860975 1676785
" />
<path d="M1860975 1678214
L1861689 1677500
L1863117 1676785
L1865260 1676785
L1866689 1677500
L1867403 1678928
L1867403 1686785
" />
<path d="M1867403 1678928
L1868117 1677500
L1869546 1676785
L1871689 1676785
L1873117 1677500
L1873832 1678928
L1873832 1686785
" />
<path d="M1880975 1676785
L1880975 1691785
" />
<path d="M1880975 1677500
L1882403 1676785
L1885260 1676785
L1886689 1677500
L1887403 1678214
L1888117 1679642
L1888117 1683928
L1887403 1685357
L1886689 1686071
L1885260 1686785
L1882403 1686785
L1880975 1686071
" />
<path d="M1896689 1686785
L1895260 1686071
L1894546 1684642
L1894546 1671785
" />
<path d="M1908117 1686071
L1906689 1686785
L1903832 1686785
L1902403 1686071
L1901689 1684642
L1901689 1678928
L1902403 1677500
L1903832 1676785
L1906689 1676785
L1908117 1677500
L1908832 1678928
L1908832 1680357
L1901689 1681785
" />
<path d="M1928832 1686785
L1927403 1686071
L1926689 1685357
L1925975 1683928
L1925975 1679642
L1926689 1678214
L1927403 1677500
L1928832 1676785
L1930975 1676785
L1932403 1677500
L1933117 1678214
L1933832 1679642
L1933832 1683928
L1933117 1685357
L1932403 1686071
L1930975 1686785
L1928832 1686785
" />
<path d="M1938117 1676785
L1943832 1676785
" />
<path d="M1940260 1686785
L1940260 1673928
L1940975 1672500
L1942403 1671785
L1943832 1671785
" />
<path d="M1960260 1686785
L1960260 1671785
" />
<path d="M1968832 1686785
L1962403 1678214
" />
<path d="M1968832 1671785
L1960260 1680357
" />
<path d="M1975260 1686785
L1975260 1676785
" />
<path d="M1975260 1671785
L1974546 1672500
L1975260 1673214
L1975975 1672500
L1975260 1671785
L1975260 1673214
" />
<path d="M1987403 1678928
L1989546 1679642
L1990260 1680357
L1990975 1681785
L1990975 1683928
L1990260 1685357
L1989546 1686071
L1988117 1686785
L1982403 1686785
L1982403 1671785
L1987403 1671785
L1988832 1672500
L1989546 1673214
L1990260 1674642
L1990260 1676071
L1989546 1677500
L1988832 1678214
L1987403 1678928
L1982403 1678928
" />
<path d="M1999546 1686785
L1998117 1686071
L1997403 1685357
L1996689 1683928
L1996689 1679642
L1997403 1678214
L1998117 1677500
L1999546 1676785
L2001689 1676785
L2003117 1677500
L2003832 1678214
L2004546 1679642
L2004546 1683928
L2003832 1685357
L2003117 1686071
L2001689 1686785
L1999546 1686785
" />
<path d="M2008832 1676785
L2014546 1676785
" />
<path d="M2010975 1671785
L2010975 1684642
L2011689 1686071
L2013117 1686785
L2014546 1686785
" />
<path d="M2029546 1676785
L2033117 1686785
L2036689 1676785
" />
<path d="M2048832 1686785
L2048832 1678928
L2048117 1677500
L2046689 1676785
L2043832 1676785
L2042403 1677500
" />
<path d="M2048832 1686071
L2047403 1686785
L2043832 1686785
L2042403 1686071
L2041689 1684642
L2041689 1683214
L2042403 1681785
L2043832 1681071
L2047403 1681071
L2048832 1680357
" />
<path d="M2055975 1686785
L2055975 1676785
" />
<path d="M2055975 1679642
L2056689 1678214
L2057403 1677500
L2058832 1676785
L2060260 1676785
" />
<path d="M2065260 1686785
L2065260 1676785
" />
<path d="M2065260 1671785
L2064546 1672500
L2065260 1673214
L2065975 1672500
L2065260 1671785
L2065260 1673214
" />
<path d="M2078832 1686785
L2078832 1678928
L2078117 1677500
L2076689 1676785
L2073832 1676785
L2072403 1677500
" />
<path d="M2078832 1686071
L2077403 1686785
L2073832 1686785
L2072403 1686071
L2071689 1684642
L2071689 1683214
L2072403 1681785
L2073832 1681071
L2077403 1681071
L2078832 1680357
" />
<path d="M2085975 1676785
L2085975 1686785
" />
<path d="M2085975 1678214
L2086689 1677500
L2088117 1676785
L2090260 1676785
L2091689 1677500
L2092403 1678928
L2092403 1686785
" />
<path d="M2097403 1676785
L2103117 1676785
" />
<path d="M2099546 1671785
L2099546 1684642
L2100260 1686071
L2101689 1686785
L2103117 1686785
" />
<path d="M2107403 1686071
L2108832 1686785
L2111689 1686785
L2113117 1686071
L2113832 1684642
L2113832 1683928
L2113117 1682500
L2111689 1681785
L2109546 1681785
L2108117 1681071
L2107403 1679642
L2107403 1678928
L2108117 1677500
L2109546 1676785
L2111689 1676785
L2113117 1677500
" />
</g></g>
<g style="fill:#000000; fill-opacity:0.0; 
stroke:#000000; stroke-width:3000.000000; stroke-opacity:1; 
stroke-linecap:round; stroke-linejoin:round;">
<text x="1780000.000000" y="1807500.000000"
textLength="491235.710000" font-size="20000.000000" lengthAdjust="spacingAndGlyphs"
text-anchor="start" opacity="0">Instituto Nacional de Tecnología Industrial</text>
<g class="stroked-text"><desc>Instituto Nacional de Tecnología Industrial</desc>
<path d="M1785521 1806785
L1785521 1791785
" />
<path d="M1792664 1796785
L1792664 1806785
" />
<path d="M1792664 1798214
L1793378 1797500
L1794807 1796785
L1796950 1796785
L1798378 1797500
L1799092 1798928
L1799092 1806785
" />
<path d="M1805521 1806071
L1806950 1806785
L1809807 1806785
L1811235 1806071
L1811950 1804642
L1811950 1803928
L1811235 1802500
L1809807 1801785
L1807664 1801785
L1806235 1801071
L1805521 1799642
L1805521 1798928
L1806235 1797500
L1807664 1796785
L1809807 1796785
L1811235 1797500
" />
<path d="M1816235 1796785
L1821950 1796785
" />
<path d="M1818378 1791785
L1818378 1804642
L1819092 1806071
L1820521 1806785
L1821950 1806785
" />
<path d="M1826950 1806785
L1826950 1796785
" />
<path d="M1826950 1791785
L1826235 1792500
L1826950 1793214
L1827664 1792500
L1826950 1791785
L1826950 1793214
" />
<path d="M1831950 1796785
L1837664 1796785
" />
<path d="M1834092 1791785
L1834092 1804642
L1834807 1806071
L1836235 1806785
L1837664 1806785
" />
<path d="M1849092 1796785
L1849092 1806785
" />
<path d="M1842664 1796785
L1842664 1804642
L1843378 1806071
L1844807 1806785
L1846950 1806785
L1848378 1806071
L1849092 1805357
" />
<path d="M1854092 1796785
L1859807 1796785
" />
<path d="M1856235 1791785
L1856235 1804642
L1856950 1806071
L1858378 1806785
L1859807 1806785
" />
<path d="M1866950 1806785
L1865521 1806071
L1864807 1805357
L1864092 1803928
L1864092 1799642
L1864807 1798214
L1865521 1797500
L1866950 1796785
L1869092 1796785
L1870521 1797500
L1871235 1798214
L1871950 1799642
L1871950 1803928
L1871235 1805357
L1870521 1806071
L1869092 1806785
L1866950 1806785
" />
<path d="M1889807 1806785
L1889807 1791785
L1898378 1806785
L1898378 1791785
" />
<path d="M1911950 1806785
L1911950 1798928
L1911235 1797500
L1909807 1796785
L1906950 1796785
L1905521 1797500
" />
<path d="M1911950 1806071
L1910521 1806785
L1906950 1806785
L1905521 1806071
L1904807 1804642
L1904807 1803214
L1905521 1801785
L1906950 1801071
L1910521 1801071
L1911950 1800357
" />
<path d="M1925521 1806071
L1924092 1806785
L1921235 1806785
L1919807 1806071
L1919092 1805357
L1918378 1803928
L1918378 1799642
L1919092 1798214
L1919807 1797500
L1921235 1796785
L1924092 1796785
L1925521 1797500
" />
<path d="M1931950 1806785
L1931950 1796785
" />
<path d="M1931950 1791785
L1931235 1792500
L1931950 1793214
L1932664 1792500
L1931950 1791785
L1931950 1793214
" />
<path d="M1941235 1806785
L1939807 1806071
L1939092 1805357
L1938378 1803928
L1938378 1799642
L1939092 1798214
L1939807 1797500
L1941235 1796785
L1943378 1796785
L1944807 1797500
L1945521 1798214
L1946235 1799642
L1946235 1803928
L1945521 1805357
L1944807 1806071
L1943378 1806785
L1941235 1806785
" />
<path d="M1952664 1796785
L1952664 1806785
" />
<path d="M1952664 1798214
L1953378 1797500
L1954807 1796785
L1956950 1796785
L1958378 1797500
L1959092 1798928
L1959092 1806785
" />
<path d="M1972664 1806785
L1972664 1798928
L1971950 1797500
L1970521 1796785
L1967664 1796785
L1966235 1797500
" />
<path d="M1972664 1806071
L1971235 1806785
L1967664 1806785
L1966235 1806071
L1965521 1804642
L1965521 1803214
L1966235 1801785
L1967664 1801071
L1971235 1801071
L1972664 1800357
" />
<path d="M1981950 1806785
L1980521 1806071
L1979807 1804642
L1979807 1791785
" />
<path d="M2005521 1806785
L2005521 1791785
" />
<path d="M2005521 1806071
L2004092 1806785
L2001235 1806785
L1999807 1806071
L1999092 1805357
L1998378 1803928
L1998378 1799642
L1999092 1798214
L1999807 1797500
L2001235 1796785
L2004092 1796785
L2005521 1797500
" />
<path d="M2018378 1806071
L2016950 1806785
L2014092 1806785
L2012664 1806071
L2011950 1804642
L2011950 1798928
L2012664 1797500
L2014092 1796785
L2016950 1796785
L2018378 1797500
L2019092 1798928
L2019092 1800357
L2011950 1801785
" />
<path d="M2034807 1791785
L2043378 1791785
" />
<path d="M2039092 1806785
L2039092 1791785
" />
<path d="M2054092 1806071
L2052664 1806785
L2049807 1806785
L2048378 1806071
L2047664 1804642
L2047664 1798928
L2048378 1797500
L2049807 1796785
L2052664 1796785
L2054092 1797500
L2054807 1798928
L2054807 1800357
L2047664 1801785
" />
<path d="M2067664 1806071
L2066235 1806785
L2063378 1806785
L2061950 1806071
L2061235 1805357
L2060521 1803928
L2060521 1799642
L2061235 1798214
L2061950 1797500
L2063378 1796785
L2066235 1796785
L2067664 1797500
" />
<path d="M2074092 1796785
L2074092 1806785
" />
<path d="M2074092 1798214
L2074807 1797500
L2076235 1796785
L2078378 1796785
L2079807 1797500
L2080521 1798928
L2080521 1806785
" />
<path d="M2089807 1806785
L2088378 1806071
L2087664 1805357
L2086950 1803928
L2086950 1799642
L2087664 1798214
L2088378 1797500
L2089807 1796785
L2091950 1796785
L2093378 1797500
L2094092 1798214
L2094807 1799642
L2094807 1803928
L2094092 1805357
L2093378 1806071
L2091950 1806785
L2089807 1806785
" />
<path d="M2103378 1806785
L2101950 1806071
L2101235 1804642
L2101235 1791785
" />
<path d="M2111235 1806785
L2109807 1806071
L2109092 1805357
L2108378 1803928
L2108378 1799642
L2109092 1798214
L2109807 1797500
L2111235 1796785
L2113378 1796785
L2114807 1797500
L2115521 1798214
L2116235 1799642
L2116235 1803928
L2115521 1805357
L2114807 1806071
L2113378 1806785
L2111235 1806785
" />
<path d="M2129092 1796785
L2129092 1808928
L2128378 1810357
L2127664 1811071
L2126235 1811785
L2124092 1811785
L2122664 1811071
" />
<path d="M2129092 1806071
L2127664 1806785
L2124807 1806785
L2123378 1806071
L2122664 1805357
L2121950 1803928
L2121950 1799642
L2122664 1798214
L2123378 1797500
L2124807 1796785
L2127664 1796785
L2129092 1797500
" />
<path d="M2136235 1806785
L2136235 1796785
" />
<path d="M2137664 1791071
L2135521 1793214
" />
<path d="M2149807 1806785
L2149807 1798928
L2149092 1797500
L2147664 1796785
L2144807 1796785
L2143378 1797500
" />
<path d="M2149807 1806071
L2148378 1806785
L2144807 1806785
L2143378 1806071
L2142664 1804642
L2142664 1803214
L2143378 1801785
L2144807 1801071
L2148378 1801071
L2149807 1800357
" />
<path d="M2168378 1806785
L2168378 1791785
" />
<path d="M2175521 1796785
L2175521 1806785
" />
<path d="M2175521 1798214
L2176235 1797500
L2177664 1796785
L2179807 1796785
L2181235 1797500
L2181950 1798928
L2181950 1806785
" />
<path d="M2195521 1806785
L2195521 1791785
" />
<path d="M2195521 1806071
L2194092 1806785
L2191235 1806785
L2189807 1806071
L2189092 1805357
L2188378 1803928
L2188378 1799642
L2189092 1798214
L2189807 1797500
L2191235 1796785
L2194092 1796785
L2195521 1797500
" />
<path d="M2209092 1796785
L2209092 1806785
" />
<path d="M2202664 1796785
L2202664 1804642
L2203378 1806071
L2204807 1806785
L2206950 1806785
L2208378 1806071
L2209092 1805357
" />
<path d="M2215521 1806071
L2216950 1806785
L2219807 1806785
L2221235 1806071
L2221950 1804642
L2221950 1803928
L2221235 1802500
L2219807 1801785
L2217664 1801785
L2216235 1801071
L2215521 1799642
L2215521 1798928
L2216235 1797500
L2217664 1796785
L2219807 1796785
L2221235 1797500
" />
<path d="M2226235 1796785
L2231950 1796785
" />
<path d="M2228378 1791785
L2228378 1804642
L2229092 1806071
L2230521 1806785
L2231950 1806785
" />
<path d="M2236950 1806785
L2236950 1796785
" />
<path d="M2236950 1799642
L2237664 1798214
L2238378 1797500
L2239807 1796785
L2241235 1796785
" />
<path d="M2246235 1806785
L2246235 1796785
" />
<path d="M2246235 1791785
L2245521 1792500
L2246235 1793214
L2246950 1792500
L2246235 1791785
L2246235 1793214
" />
<path d="M2259807 1806785
L2259807 1798928
L2259092 1797500
L2257664 1796785
L2254807 1796785
L2253378 1797500
" />
<path d="M2259807 1806071
L2258378 1806785
L2254807 1806785
L2253378 1806071
L2252664 1804642
L2252664 1803214
L2253378 1801785
L2254807 1801071
L2258378 1801071
L2259807 1800357
" />
<path d="M2269092 1806785
L2267664 1806071
L2266950 1804642
L2266950 1791785
" />
</g></g>
<g style="fill:#000000; fill-opacity:0.0; 
stroke:#000000; stroke-width:1500.000000; stroke-opacity:1; 
stroke-linecap:round; stroke-linejoin:round;">
<text x="1780000.000000" y="1837500.000000"
textLength="229614.290000" font-size="20000.000000" lengthAdjust="spacingAndGlyphs"
text-anchor="start" opacity="0">Sheet: Front copper</text>
<g class="stroked-text"><desc>Sheet: Front copper</desc>
<path d="M1783832 1836071
L1785975 1836785
L1789546 1836785
L1790975 1836071
L1791689 1835357
L1792403 1833928
L1792403 1832500
L1791689 1831071
L1790975 1830357
L1789546 1829642
L1786689 1828928
L1785260 1828214
L1784546 1827500
L1783832 1826071
L1783832 1824642
L1784546 1823214
L1785260 1822500
L1786689 1821785
L1790260 1821785
L1792403 1822500
" />
<path d="M1798832 1836785
L1798832 1821785
" />
<path d="M1805260 1836785
L1805260 1828928
L1804546 1827500
L1803117 1826785
L1800975 1826785
L1799546 1827500
L1798832 1828214
" />
<path d="M1818117 1836071
L1816689 1836785
L1813832 1836785
L1812403 1836071
L1811689 1834642
L1811689 1828928
L1812403 1827500
L1813832 1826785
L1816689 1826785
L1818117 1827500
L1818832 1828928
L1818832 1830357
L1811689 1831785
" />
<path d="M1830975 1836071
L1829546 1836785
L1826689 1836785
L1825260 1836071
L1824546 1834642
L1824546 1828928
L1825260 1827500
L1826689 1826785
L1829546 1826785
L1830975 1827500
L1831689 1828928
L1831689 1830357
L1824546 1831785
" />
<path d="M1835975 1826785
L1841689 1826785
" />
<path d="M1838117 1821785
L1838117 1834642
L1838832 1836071
L1840260 1836785
L1841689 1836785
" />
<path d="M1846689 1835357
L1847403 1836071
L1846689 1836785
L1845975 1836071
L1846689 1835357
L1846689 1836785
" />
<path d="M1846689 1827500
L1847403 1828214
L1846689 1828928
L1845975 1828214
L1846689 1827500
L1846689 1828928
" />
<path d="M1870260 1828928
L1865260 1828928
" />
<path d="M1865260 1836785
L1865260 1821785
L1872403 1821785
" />
<path d="M1878117 1836785
L1878117 1826785
" />
<path d="M1878117 1829642
L1878832 1828214
L1879546 1827500
L1880975 1826785
L1882403 1826785
" />
<path d="M1889546 1836785
L1888117 1836071
L1887403 1835357
L1886689 1833928
L1886689 1829642
L1887403 1828214
L1888117 1827500
L1889546 1826785
L1891689 1826785
L1893117 1827500
L1893832 1828214
L1894546 1829642
L1894546 1833928
L1893832 1835357
L1893117 1836071
L1891689 1836785
L1889546 1836785
" />
<path d="M1900975 1826785
L1900975 1836785
" />
<path d="M1900975 1828214
L1901689 1827500
L1903117 1826785
L1905260 1826785
L1906689 1827500
L1907403 1828928
L1907403 1836785
" />
<path d="M1912403 1826785
L1918117 1826785
" />
<path d="M1914546 1821785
L1914546 1834642
L1915260 1836071
L1916689 1836785
L1918117 1836785
" />
<path d="M1940975 1836071
L1939546 1836785
L1936689 1836785
L1935260 1836071
L1934546 1835357
L1933832 1833928
L1933832 1829642
L1934546 1828214
L1935260 1827500
L1936689 1826785
L1939546 1826785
L1940975 1827500
" />
<path d="M1949546 1836785
L1948117 1836071
L1947403 1835357
L1946689 1833928
L1946689 1829642
L1947403 1828214
L1948117 1827500
L1949546 1826785
L1951689 1826785
L1953117 1827500
L1953832 1828214
L1954546 1829642
L1954546 1833928
L1953832 1835357
L1953117 1836071
L1951689 1836785
L1949546 1836785
" />
<path d="M1960975 1826785
L1960975 1841785
" />
<path d="M1960975 1827500
L1962403 1826785
L1965260 1826785
L1966689 1827500
L1967403 1828214
L1968117 1829642
L1968117 1833928
L1967403 1835357
L1966689 1836071
L1965260 1836785
L1962403 1836785
L1960975 1836071
" />
<path d="M1974546 1826785
L1974546 1841785
" />
<path d="M1974546 1827500
L1975975 1826785
L1978832 1826785
L1980260 1827500
L1980975 1828214
L1981689 1829642
L1981689 1833928
L1980975 1835357
L1980260 1836071
L1978832 1836785
L1975975 1836785
L1974546 1836071
" />
<path d="M1993832 1836071
L1992403 1836785
L1989546 1836785
L1988117 1836071
L1987403 1834642
L1987403 1828928
L1988117 1827500
L1989546 1826785
L1992403 1826785
L1993832 1827500
L1994546 1828928
L1994546 1830357
L1987403 1831785
" />
<path d="M2000975 1836785
L2000975 1826785
" />
<path d="M2000975 1829642
L2001689 1828214
L2002403 1827500
L2003832 1826785
L2005260 1826785
" />
</g><path d="M1770000 1815000
L2850000 1815000
" />
<text x="1780000.000000" y="1864500.000000"
textLength="201950.000000" font-size="20000.000000" lengthAdjust="spacingAndGlyphs"
text-anchor="start" opacity="0">File: t1.kicad_pcb</text>
<g class="stroked-text"><desc>File: t1.kicad_pcb</desc>
<path d="M1789546 1855928
L1784546 1855928
" />
<path d="M1784546 1863785
L1784546 1848785
L1791689 1848785
" />
<path d="M1797403 1863785
L1797403 1853785
" />
<path d="M1797403 1848785
L1796689 1849500
L1797403 1850214
L1798117 1849500
L1797403 1848785
L1797403 1850214
" />
<path d="M1806689 1863785
L1805260 1863071
L1804546 1861642
L1804546 1848785
" />
<path d="M1818117 1863071
L1816689 1863785
L1813832 1863785
L1812403 1863071
L1811689 1861642
L1811689 1855928
L1812403 1854500
L1813832 1853785
L1816689 1853785
L1818117 1854500
L1818832 1855928
L1818832 1857357
L1811689 1858785
" />
<path d="M1825260 1862357
L1825975 1863071
L1825260 1863785
L1824546 1863071
L1825260 1862357
L1825260 1863785
" />
<path d="M1825260 1854500
L1825975 1855214
L1825260 1855928
L1824546 1855214
L1825260 1854500
L1825260 1855928
" />
<path d="M1841689 1853785
L1847403 1853785
" />
<path d="M1843832 1848785
L1843832 1861642
L1844546 1863071
L1845975 1863785
L1847403 1863785
" />
<path d="M1860260 1863785
L1851689 1863785
" />
<path d="M1855975 1863785
L1855975 1848785
L1854546 1850928
L1853117 1852357
L1851689 1853071
" />
<path d="M1866689 1862357
L1867403 1863071
L1866689 1863785
L1865975 1863071
L1866689 1862357
L1866689 1863785
" />
<path d="M1873832 1863785
L1873832 1848785
" />
<path d="M1875260 1858071
L1879546 1863785
" />
<path d="M1879546 1853785
L1873832 1859500
" />
<path d="M1885975 1863785
L1885975 1853785
" />
<path d="M1885975 1848785
L1885260 1849500
L1885975 1850214
L1886689 1849500
L1885975 1848785
L1885975 1850214
" />
<path d="M1899546 1863071
L1898117 1863785
L1895260 1863785
L1893832 1863071
L1893117 1862357
L1892403 1860928
L1892403 1856642
L1893117 1855214
L1893832 1854500
L1895260 1853785
L1898117 1853785
L1899546 1854500
" />
<path d="M1912403 1863785
L1912403 1855928
L1911689 1854500
L1910260 1853785
L1907403 1853785
L1905975 1854500
" />
<path d="M1912403 1863071
L1910975 1863785
L1907403 1863785
L1905975 1863071
L1905260 1861642
L1905260 1860214
L1905975 1858785
L1907403 1858071
L1910975 1858071
L1912403 1857357
" />
<path d="M1925975 1863785
L1925975 1848785
" />
<path d="M1925975 1863071
L1924546 1863785
L1921689 1863785
L1920260 1863071
L1919546 1862357
L1918832 1860928
L1918832 1856642
L1919546 1855214
L1920260 1854500
L1921689 1853785
L1924546 1853785
L1925975 1854500
" />
<path d="M1929546 1865214
L1940975 1865214
" />
<path d="M1944546 1853785
L1944546 1868785
" />
<path d="M1944546 1854500
L1945975 1853785
L1948832 1853785
L1950260 1854500
L1950975 1855214
L1951689 1856642
L1951689 1860928
L1950975 1862357
L1950260 1863071
L1948832 1863785
L1945975 1863785
L1944546 1863071
" />
<path d="M1964546 1863071
L1963117 1863785
L1960260 1863785
L1958832 1863071
L1958117 1862357
L1957403 1860928
L1957403 1856642
L1958117 1855214
L1958832 1854500
L1960260 1853785
L1963117 1853785
L1964546 1854500
" />
<path d="M1970975 1863785
L1970975 1848785
" />
<path d="M1970975 1854500
L1972403 1853785
L1975260 1853785
L1976689 1854500
L1977403 1855214
L1978117 1856642
L1978117 1860928
L1977403 1862357
L1976689 1863071
L1975260 1863785
L1972403 1863785
L1970975 1863071
" />
</g></g>
<g style="fill:#000000; fill-opacity:0.0; 
stroke:#000000; stroke-width:3000.000000; stroke-opacity:1; 
stroke-linecap:round; stroke-linejoin:round;">
<text x="1780000.000000" y="1903000.000000"
textLength="475283.330000" font-size="26666.660000" lengthAdjust="spacingAndGlyphs"
text-anchor="start" opacity="0">Title: Arduino UNO programmer</text>
<g class="stroked-text"><desc>Title: Arduino UNO programmer</desc>
<path d="M1783854 1882047
L1795283 1882047
" />
<path d="M1789569 1902047
L1789569 1882047
" />
<path d="M1801950 1902047
L1801950 1888714
" />
<path d="M1801950 1882047
L1800997 1883000
L1801950 1883952
L1802902 1883000
L1801950 1882047
L1801950 1883952
" />
<path d="M1808616 1888714
L1816235 1888714
" />
<path d="M1811473 1882047
L1811473 1899190
L1812426 1901095
L1814330 1902047
L1816235 1902047
" />
<path d="M1825759 1902047
L1823854 1901095
L1822902 1899190
L1822902 1882047
" />
<path d="M1840997 1901095
L1839092 1902047
L1835283 1902047
L1833378 1901095
L1832426 1899190
L1832426 1891571
L1833378 1889666
L1835283 1888714
L1839092 1888714
L1840997 1889666
L1841950 1891571
L1841950 1893476
L1832426 1895380
" />
<path d="M1850521 1900142
L1851473 1901095
L1850521 1902047
L1849569 1901095
L1850521 1900142
L1850521 1902047
" />
<path d="M1850521 1889666
L1851473 1890619
L1850521 1891571
L1849569 1890619
L1850521 1889666
L1850521 1891571
" />
<path d="M1874330 1896333
L1883854 1896333
" />
<path d="M1872426 1902047
L1879092 1882047
L1885759 1902047
" />
<path d="M1892426 1902047
L1892426 1888714
" />
<path d="M1892426 1892523
L1893378 1890619
L1894330 1889666
L1896235 1888714
L1898140 1888714
" />
<path d="M1913378 1902047
L1913378 1882047
" />
<path d="M1913378 1901095
L1911473 1902047
L1907664 1902047
L1905759 1901095
L1904807 1900142
L1903854 1898238
L1903854 1892523
L1904807 1890619
L1905759 1889666
L1907664 1888714
L1911473 1888714
L1913378 1889666
" />
<path d="M1931473 1888714
L1931473 1902047
" />
<path d="M1922902 1888714
L1922902 1899190
L1923854 1901095
L1925759 1902047
L1928616 1902047
L1930521 1901095
L1931473 1900142
" />
<path d="M1940997 1902047
L1940997 1888714
" />
<path d="M1940997 1882047
L1940045 1883000
L1940997 1883952
L1941950 1883000
L1940997 1882047
L1940997 1883952
" />
<path d="M1950521 1888714
L1950521 1902047
" />
<path d="M1950521 1890619
L1951473 1889666
L1953378 1888714
L1956235 1888714
L1958140 1889666
L1959092 1891571
L1959092 1902047
" />
<path d="M1971473 1902047
L1969569 1901095
L1968616 1900142
L1967664 1898238
L1967664 1892523
L1968616 1890619
L1969569 1889666
L1971473 1888714
L1974330 1888714
L1976235 1889666
L1977188 1890619
L1978140 1892523
L1978140 1898238
L1977188 1900142
L1976235 1901095
L1974330 1902047
L1971473 1902047
" />
<path d="M2001950 1882047
L2001950 1898238
L2002902 1900142
L2003854 1901095
L2005759 1902047
L2009569 1902047
L2011473 1901095
L2012426 1900142
L2013378 1898238
L2013378 1882047
" />
<path d="M2022902 1902047
L2022902 1882047
L2034330 1902047
L2034330 1882047
" />
<path d="M2047664 1882047
L2051473 1882047
L2053378 1883000
L2055283 1884904
L2056235 1888714
L2056235 1895380
L2055283 1899190
L2053378 1901095
L2051473 1902047
L2047664 1902047
L2045759 1901095
L2043854 1899190
L2042902 1895380
L2042902 1888714
L2043854 1884904
L2045759 1883000
L2047664 1882047
" />
<path d="M2080045 1888714
L2080045 1908714
" />
<path d="M2080045 1889666
L2081950 1888714
L2085759 1888714
L2087664 1889666
L2088616 1890619
L2089569 1892523
L2089569 1898238
L2088616 1900142
L2087664 1901095
L2085759 1902047
L2081950 1902047
L2080045 1901095
" />
<path d="M2098140 1902047
L2098140 1888714
" />
<path d="M2098140 1892523
L2099092 1890619
L2100045 1889666
L2101950 1888714
L2103854 1888714
" />
<path d="M2113378 1902047
L2111473 1901095
L2110521 1900142
L2109569 1898238
L2109569 1892523
L2110521 1890619
L2111473 1889666
L2113378 1888714
L2116235 1888714
L2118140 1889666
L2119092 1890619
L2120045 1892523
L2120045 1898238
L2119092 1900142
L2118140 1901095
L2116235 1902047
L2113378 1902047
" />
<path d="M2137188 1888714
L2137188 1904904
L2136235 1906809
L2135283 1907761
L2133378 1908714
L2130521 1908714
L2128616 1907761
" />
<path d="M2137188 1901095
L2135283 1902047
L2131473 1902047
L2129569 1901095
L2128616 1900142
L2127664 1898238
L2127664 1892523
L2128616 1890619
L2129569 1889666
L2131473 1888714
L2135283 1888714
L2137188 1889666
" />
<path d="M2146711 1902047
L2146711 1888714
" />
<path d="M2146711 1892523
L2147664 1890619
L2148616 1889666
L2150521 1888714
L2152426 1888714
" />
<path d="M2167664 1902047
L2167664 1891571
L2166711 1889666
L2164807 1888714
L2160997 1888714
L2159092 1889666
" />
<path d="M2167664 1901095
L2165759 1902047
L2160997 1902047
L2159092 1901095
L2158140 1899190
L2158140 1897285
L2159092 1895380
L2160997 1894428
L2165759 1894428
L2167664 1893476
" />
<path d="M2177188 1902047
L2177188 1888714
" />
<path d="M2177188 1890619
L2178140 1889666
L2180045 1888714
L2182902 1888714
L2184807 1889666
L2185759 1891571
L2185759 1902047
" />
<path d="M2185759 1891571
L2186711 1889666
L2188616 1888714
L2191473 1888714
L2193378 1889666
L2194330 1891571
L2194330 1902047
" />
<path d="M2203854 1902047
L2203854 1888714
" />
<path d="M2203854 1890619
L2204807 1889666
L2206711 1888714
L2209569 1888714
L2211473 1889666
L2212426 1891571
L2212426 1902047
" />
<path d="M2212426 1891571
L2213378 1889666
L2215283 1888714
L2218140 1888714
L2220045 1889666
L2220997 1891571
L2220997 1902047
" />
<path d="M2238140 1901095
L2236235 1902047
L2232426 1902047
L2230521 1901095
L2229569 1899190
L2229569 1891571
L2230521 1889666
L2232426 1888714
L2236235 1888714
L2238140 1889666
L2239092 1891571
L2239092 1893476
L2229569 1895380
" />
<path d="M2247664 1902047
L2247664 1888714
" />
<path d="M2247664 1892523
L2248616 1890619
L2249569 1889666
L2251473 1888714
L2253378 1888714
" />
</g></g>
<g style="fill:#000000; fill-opacity:0.0; 
stroke:#000000; stroke-width:1500.000000; stroke-opacity:1; 
stroke-linecap:round; stroke-linejoin:round;">
<path d="M1770000 1875000
L2850000 1875000
" />
<text x="2630000.000000" y="1966500.010000"
textLength="87471.430000" font-size="20000.000000" lengthAdjust="spacingAndGlyphs"
text-anchor="start" opacity="0">Id: 1/8</text>
<g class="stroked-text"><desc>Id: 1/8</desc>
<path d="M2634546 1965785
L2634546 1950785
" />
<path d="M2648117 1965785
L2648117 1950785
" />
<path d="M2648117 1965071
L2646689 1965785
L2643832 1965785
L2642403 1965071
L2641689 1964357
L2640975 1962928
L2640975 1958642
L2641689 1957214
L2642403 1956500
L2643832 1955785
L2646689 1955785
L2648117 1956500
" />
<path d="M2655260 1964357
L2655975 1965071
L2655260 1965785
L2654546 1965071
L2655260 1964357
L2655260 1965785
" />
<path d="M2655260 1956500
L2655975 1957214
L2655260 1957928
L2654546 1957214
L2655260 1956500
L2655260 1957928
" />
<path d="M2681689 1965785
L2673117 1965785
" />
<path d="M2677403 1965785
L2677403 1950785
L2675975 1952928
L2674546 1954357
L2673117 1955071
" />
<path d="M2698832 1950071
L2685975 1969357
" />
<path d="M2705975 1957214
L2704546 1956500
L2703832 1955785
L2703117 1954357
L2703117 1953642
L2703832 1952214
L2704546 1951500
L2705975 1950785
L2708832 1950785
L2710260 1951500
L2710975 1952214
L2711689 1953642
L2711689 1954357
L2710975 1955785
L2710260 1956500
L2708832 1957214
L2705975 1957214
L2704546 1957928
L2703832 1958642
L2703117 1960071
L2703117 1962928
L2703832 1964357
L2704546 1965071
L2705975 1965785
L2708832 1965785
L2710260 1965071
L2710975 1964357
L2711689 1962928
L2711689 1960071
L2710975 1958642
L2710260 1957928
L2708832 1957214
" />
</g><text x="1780000.000000" y="1938500.000000"
textLength="94092.860000" font-size="20000.000000" lengthAdjust="spacingAndGlyphs"
text-anchor="start" opacity="0">Size: A4</text>
<g class="stroked-text"><desc>Size: A4</desc>
<path d="M1783832 1937071
L1785975 1937785
L1789546 1937785
L1790975 1937071
L1791689 1936357
L1792403 1934928
L1792403 1933500
L1791689 1932071
L1790975 1931357
L1789546 1930642
L1786689 1929928
L1785260 1929214
L1784546 1928500
L1783832 1927071
L1783832 1925642
L1784546 1924214
L1785260 1923500
L1786689 1922785
L1790260 1922785
L1792403 1923500
" />
<path d="M1798832 1937785
L1798832 1927785
" />
<path d="M1798832 1922785
L1798117 1923500
L1798832 1924214
L1799546 1923500
L1798832 1922785
L1798832 1924214
" />
<path d="M1804546 1927785
L1812403 1927785
L1804546 1937785
L1812403 1937785
" />
<path d="M1823832 1937071
L1822403 1937785
L1819546 1937785
L1818117 1937071
L1817403 1935642
L1817403 1929928
L1818117 1928500
L1819546 1927785
L1822403 1927785
L1823832 1928500
L1824546 1929928
L1824546 1931357
L1817403 1932785
" />
<path d="M1830975 1936357
L1831689 1937071
L1830975 1937785
L1830260 1937071
L1830975 1936357
L1830975 1937785
" />
<path d="M1830975 1928500
L1831689 1929214
L1830975 1929928
L1830260 1929214
L1830975 1928500
L1830975 1929928
" />
<path d="M1848832 1933500
L1855975 1933500
" />
<path d="M1847403 1937785
L1852403 1922785
L1857403 1937785
" />
<path d="M1868832 1927785
L1868832 1937785
" />
<path d="M1865260 1922071
L1861689 1932785
L1870975 1932785
" />
</g></g>
<g style="fill:#000000; fill-opacity:0.0; 
stroke:#000000; stroke-width:3000.000000; stroke-opacity:1; 
stroke-linecap:round; stroke-linejoin:round;">
<text x="2630000.000000" y="1938500.000000"
textLength="187664.290000" font-size="20000.000000" lengthAdjust="spacingAndGlyphs"
text-anchor="start" opacity="0">Rev: ${git_hash}</text>
<g class="stroked-text"><desc>Rev: ${git_hash}</desc>
<path d="M2644092 1937785
L2639092 1930642
" />
<path d="M2635521 1937785
L2635521 1922785
L2641235 1922785
L2642664 1923500
L2643378 1924214
L2644092 1925642
L2644092 1927785
L2643378 1929214
L2642664 1929928
L2641235 1930642
L2635521 1930642
" />
<path d="M2656235 1937071
L2654807 1937785
L2651950 1937785
L2650521 1937071
L2649807 1935642
L2649807 1929928
L2650521 1928500
L2651950 1927785
L2654807 1927785
L2656235 1928500
L2656950 1929928
L2656950 1931357
L2649807 1932785
" />
<path d="M2661950 1927785
L2665521 1937785
L2669092 1927785
" />
<path d="M2674807 1936357
L2675521 1937071
L2674807 1937785
L2674092 1937071
L2674807 1936357
L2674807 1937785
" />
<path d="M2674807 1928500
L2675521 1929214
L2674807 1929928
L2674092 1929214
L2674807 1928500
L2674807 1929928
" />
<path d="M2692664 1937071
L2694807 1937785
L2698378 1937785
L2699807 1937071
L2700521 1936357
L2701235 1934928
L2701235 1933500
L2700521 1932071
L2699807 1931357
L2698378 1930642
L2695521 1929928
L2694092 1929214
L2693378 1928500
L2692664 1927071
L2692664 1925642
L2693378 1924214
L2694092 1923500
L2695521 1922785
L2699092 1922785
L2701235 1923500
" />
<path d="M2696950 1920642
L2696950 1939928
" />
<path d="M2711950 1943500
L2711235 1943500
L2709807 1942785
L2709092 1941357
L2709092 1934214
L2708378 1932785
L2706950 1932071
L2708378 1931357
L2709092 1929928
L2709092 1922785
L2709807 1921357
L2711235 1920642
L2711950 1920642
" />
<path d="M2724092 1927785
L2724092 1939928
L2723378 1941357
L2722664 1942071
L2721235 1942785
L2719092 1942785
L2717664 1942071
" />
<path d="M2724092 1937071
L2722664 1937785
L2719807 1937785
L2718378 1937071
L2717664 1936357
L2716950 1934928
L2716950 1930642
L2717664 1929214
L2718378 1928500
L2719807 1927785
L2722664 1927785
L2724092 1928500
" />
<path d="M2731235 1937785
L2731235 1927785
" />
<path d="M2731235 1922785
L2730521 1923500
L2731235 1924214
L2731950 1923500
L2731235 1922785
L2731235 1924214
" />
<path d="M2736235 1927785
L2741950 1927785
" />
<path d="M2738378 1922785
L2738378 1935642
L2739092 1937071
L2740521 1937785
L2741950 1937785
" />
<path d="M2743378 1939214
L2754807 1939214
" />
<path d="M2758378 1937785
L2758378 1922785
" />
<path d="M2764807 1937785
L2764807 1929928
L2764092 1928500
L2762664 1927785
L2760521 1927785
L2759092 1928500
L2758378 1929214
" />
<path d="M2778378 1937785
L2778378 1929928
L2777664 1928500
L2776235 1927785
L2773378 1927785
L2771950 1928500
" />
<path d="M2778378 1937071
L2776950 1937785
L2773378 1937785
L2771950 1937071
L2771235 1935642
L2771235 1934214
L2771950 1932785
L2773378 1932071
L2776950 1932071
L2778378 1931357
" />
<path d="M2784807 1937071
L2786235 1937785
L2789092 1937785
L2790521 1937071
L2791235 1935642
L2791235 1934928
L2790521 1933500
L2789092 1932785
L2786950 1932785
L2785521 1932071
L2784807 1930642
L2784807 1929928
L2785521 1928500
L2786950 1927785
L2789092 1927785
L2790521 1928500
" />
<path d="M2797664 1937785
L2797664 1922785
" />
<path d="M2804092 1937785
L2804092 1929928
L2803378 1928500
L2801950 1927785
L2799807 1927785
L2798378 1928500
L2797664 1929214
" />
<path d="M2809807 1943500
L2810521 1943500
L2811950 1942785
L2812664 1941357
L2812664 1934214
L2813378 1932785
L2814807 1932071
L2813378 1931357
L2812664 1929928
L2812664 1922785
L2811950 1921357
L2810521 1920642
L2809807 1920642
" />
</g></g>
<g style="fill:#000000; fill-opacity:0.0; 
stroke:#000000; stroke-width:1500.000000; stroke-opacity:1; 
stroke-linecap:round; stroke-linejoin:round;">
<path d="M1770000 1915000
L2850000 1915000
" />
<text x="1780000.000000" y="1966500.010000"
textLength="618185.710000" font-size="20000.000000" lengthAdjust="spacingAndGlyphs"
text-anchor="start" opacity="0">KiCad E.D.A. 6.0.11+dfsg-1~bpo11+1 + KiBot v1.6.1</text>
<g class="stroked-text"><desc>KiCad E.D.A. 6.0.11+dfsg-1~bpo11+1 + KiBot v1.6.1</desc>
<path d="M1784546 1965785
L1784546 1950785
" />
<path d="M1793117 1965785
L1786689 1957214
" />
<path d="M1793117 1950785
L1784546 1959357
" />
<path d="M1799546 1965785
L1799546 1955785
" />
<path d="M1799546 1950785
L1798832 1951500
L1799546 1952214
L1800260 1951500
L1799546 1950785
L1799546 1952214
" />
<path d="M1815260 1964357
L1814546 1965071
L1812403 1965785
L1810975 1965785
L1808832 1965071
L1807403 1963642
L1806689 1962214
L1805975 1959357
L1805975 1957214
L1806689 1954357
L1807403 1952928
L1808832 1951500
L1810975 1950785
L1812403 1950785
L1814546 1951500
L1815260 1952214
" />
<path d="M1828117 1965785
L1828117 1957928
L1827403 1956500
L1825975 1955785
L1823117 1955785
L1821689 1956500
" />
<path d="M1828117 1965071
L1826689 1965785
L1823117 1965785
L1821689 1965071
L1820975 1963642
L1820975 1962214
L1821689 1960785
L1823117 1960071
L1826689 1960071
L1828117 1959357
" />
<path d="M1841689 1965785
L1841689 1950785
" />
<path d="M1841689 1965071
L1840260 1965785
L1837403 1965785
L1835975 1965071
L1835260 1964357
L1834546 1962928
L1834546 1958642
L1835260 1957214
L1835975 1956500
L1837403 1955785
L1840260 1955785
L1841689 1956500
" />
<path d="M1860260 1957928
L1865260 1957928
" />
<path d="M1867403 1965785
L1860260 1965785
L1860260 1950785
L1867403 1950785
" />
<path d="M1873832 1964357
L1874546 1965071
L1873832 1965785
L1873117 1965071
L1873832 1964357
L1873832 1965785
" />
<path d="M1880975 1965785
L1880975 1950785
L1884546 1950785
L1886689 1951500
L1888117 1952928
L1888832 1954357
L1889546 1957214
L1889546 1959357
L1888832 1962214
L1888117 1963642
L1886689 1965071
L1884546 1965785
L1880975 1965785
" />
<path d="M1895975 1964357
L1896689 1965071
L1895975 1965785
L1895260 1965071
L1895975 1964357
L1895975 1965785
" />
<path d="M1902403 1961500
L1909546 1961500
" />
<path d="M1900975 1965785
L1905975 1950785
L1910975 1965785
" />
<path d="M1915975 1964357
L1916689 1965071
L1915975 1965785
L1915260 1965071
L1915975 1964357
L1915975 1965785
" />
<path d="M1940975 1950785
L1938117 1950785
L1936689 1951500
L1935975 1952214
L1934546 1954357
L1933832 1957214
L1933832 1962928
L1934546 1964357
L1935260 1965071
L1936689 1965785
L1939546 1965785
L1940975 1965071
L1941689 1964357
L1942403 1962928
L1942403 1959357
L1941689 1957928
L1940975 1957214
L1939546 1956500
L1936689 1956500
L1935260 1957214
L1934546 1957928
L1933832 1959357
" />
<path d="M1948832 1964357
L1949546 1965071
L1948832 1965785
L1948117 1965071
L1948832 1964357
L1948832 1965785
" />
<path d="M1958832 1950785
L1960260 1950785
L1961689 1951500
L1962403 1952214
L1963117 1953642
L1963832 1956500
L1963832 1960071
L1963117 1962928
L1962403 1964357
L1961689 1965071
L1960260 1965785
L1958832 1965785
L1957403 1965071
L1956689 1964357
L1955975 1962928
L1955260 1960071
L1955260 1956500
L1955975 1953642
L1956689 1952214
L1957403 1951500
L1958832 1950785
" />
<path d="M1970260 1964357
L1970975 1965071
L1970260 1965785
L1969546 1965071
L1970260 1964357
L1970260 1965785
" />
<path d="M1985260 1965785
L1976689 1965785
" />
<path d="M1980975 1965785
L1980975 1950785
L1979546 1952928
L1978117 1954357
L1976689 1955071
" />
<path d="M1999546 1965785
L1990975 1965785
" />
<path d="M1995260 1965785
L1995260 1950785
L1993832 1952928
L1992403 1954357
L1990975 1955071
" />
<path d="M2005975 1960071
L2017403 1960071
" />
<path d="M2011689 1965785
L2011689 1954357
" />
<path d="M2030975 1965785
L2030975 1950785
" />
<path d="M2030975 1965071
L2029546 1965785
L2026689 1965785
L2025260 1965071
L2024546 1964357
L2023832 1962928
L2023832 1958642
L2024546 1957214
L2025260 1956500
L2026689 1955785
L2029546 1955785
L2030975 1956500
" />
<path d="M2035975 1955785
L2041689 1955785
" />
<path d="M2038117 1965785
L2038117 1952928
L2038832 1951500
L2040260 1950785
L2041689 1950785
" />
<path d="M2045975 1965071
L2047403 1965785
L2050260 1965785
L2051689 1965071
L2052403 1963642
L2052403 1962928
L2051689 1961500
L2050260 1960785
L2048117 1960785
L2046689 1960071
L2045975 1958642
L2045975 1957928
L2046689 1956500
L2048117 1955785
L2050260 1955785
L2051689 1956500
" />
<path d="M2065260 1955785
L2065260 1967928
L2064546 1969357
L2063832 1970071
L2062403 1970785
L2060260 1970785
L2058832 1970071
" />
<path d="M2065260 1965071
L2063832 1965785
L2060975 1965785
L2059546 1965071
L2058832 1964357
L2058117 1962928
L2058117 1958642
L2058832 1957214
L2059546 1956500
L2060975 1955785
L2063832 1955785
L2065260 1956500
" />
<path d="M2072403 1960071
L2083832 1960071
" />
<path d="M2098832 1965785
L2090260 1965785
" />
<path d="M2094546 1965785
L2094546 1950785
L2093117 1952928
L2091689 1954357
L2090260 1955071
" />
<path d="M2103117 1960071
L2103832 1959357
L2105260 1958642
L2108117 1960071
L2109546 1959357
L2110260 1958642
" />
<path d="M2115975 1965785
L2115975 1950785
" />
<path d="M2115975 1956500
L2117403 1955785
L2120260 1955785
L2121689 1956500
L2122403 1957214
L2123117 1958642
L2123117 1962928
L2122403 1964357
L2121689 1965071
L2120260 1965785
L2117403 1965785
L2115975 1965071
" />
<path d="M2129546 1955785
L2129546 1970785
" />
<path d="M2129546 1956500
L2130975 1955785
L2133832 1955785
L2135260 1956500
L2135975 1957214
L2136689 1958642
L2136689 1962928
L2135975 1964357
L2135260 1965071
L2133832 1965785
L2130975 1965785
L2129546 1965071
" />
<path d="M2145260 1965785
L2143832 1965071
L2143117 1964357
L2142403 1962928
L2142403 1958642
L2143117 1957214
L2143832 1956500
L2145260 1955785
L2147403 1955785
L2148832 1956500
L2149546 1957214
L2150260 1958642
L2150260 1962928
L2149546 1964357
L2148832 1965071
L2147403 1965785
L2145260 1965785
" />
<path d="M2164546 1965785
L2155975 1965785
" />
<path d="M2160260 1965785
L2160260 1950785
L2158832 1952928
L2157403 1954357
L2155975 1955071
" />
<path d="M2178832 1965785
L2170260 1965785
" />
<path d="M2174546 1965785
L2174546 1950785
L2173117 1952928
L2171689 1954357
L2170260 1955071
" />
<path d="M2185260 1960071
L2196689 1960071
" />
<path d="M2190975 1965785
L2190975 1954357
" />
<path d="M2211689 1965785
L2203117 1965785
" />
<path d="M2207403 1965785
L2207403 1950785
L2205975 1952928
L2204546 1954357
L2203117 1955071
" />
<path d="M2229546 1960071
L2240975 1960071
" />
<path d="M2235260 1965785
L2235260 1954357
" />
<path d="M2259546 1965785
L2259546 1950785
" />
<path d="M2268117 1965785
L2261689 1957214
" />
<path d="M2268117 1950785
L2259546 1959357
" />
<path d="M2274546 1965785
L2274546 1955785
" />
<path d="M2274546 1950785
L2273832 1951500
L2274546 1952214
L2275260 1951500
L2274546 1950785
L2274546 1952214
" />
<path d="M2286689 1957928
L2288832 1958642
L2289546 1959357
L2290260 1960785
L2290260 1962928
L2289546 1964357
L2288832 1965071
L2287403 1965785
L2281689 1965785
L2281689 1950785
L2286689 1950785
L2288117 1951500
L2288832 1952214
L2289546 1953642
L2289546 1955071
L2288832 1956500
L2288117 1957214
L2286689 1957928
L2281689 1957928
" />
<path d="M2298832 1965785
L2297403 1965071
L2296689 1964357
L2295975 1962928
L2295975 1958642
L2296689 1957214
L2297403 1956500
L2298832 1955785
L2300975 1955785
L2302403 1956500
L2303117 1957214
L2303832 1958642
L2303832 1962928
L2303117 1964357
L2302403 1965071
L2300975 1965785
L2298832 1965785
" />
<path d="M2308117 1955785
L2313832 1955785
" />
<path d="M2310260 1950785
L2310260 1963642
L2310975 1965071
L2312403 1965785
L2313832 1965785
" />
<path d="M2328832 1955785
L2332403 1965785
L2335975 1955785
" />
<path d="M2349546 1965785
L2340975 1965785
" />
<path d="M2345260 1965785
L2345260 1950785
L2343832 1952928
L2342403 1954357
L2340975 1955071
" />
<path d="M2355975 1964357
L2356689 1965071
L2355975 1965785
L2355260 1965071
L2355975 1964357
L2355975 1965785
" />
<path d="M2369546 1950785
L2366689 1950785
L2365260 1951500
L2364546 1952214
L2363117 1954357
L2362403 1957214
L2362403 1962928
L2363117 1964357
L2363832 1965071
L2365260 1965785
L2368117 1965785
L2369546 1965071
L2370260 1964357
L2370975 1962928
L2370975 1959357
L2370260 1957928
L2369546 1957214
L2368117 1956500
L2365260 1956500
L2363832 1957214
L2363117 1957928
L2362403 1959357
" />
<path d="M2377403 1964357
L2378117 1965071
L2377403 1965785
L2376689 1965071
L2377403 1964357
L2377403 1965785
" />
<path d="M2392403 1965785
L2383832 1965785
" />
<path d="M2388117 1965785
L2388117 1950785
L2386689 1952928
L2385260 1954357
L2383832 1955071
" />
</g><path d="M1770000 1945000
L2850000 1945000
" />
<text x="2000000.000000" y="1938500.000000"
textLength="153378.570000" font-size="20000.000000" lengthAdjust="spacingAndGlyphs"
text-anchor="start" opacity="0">Date: ${date}</text>
<g class="stroked-text"><desc>Date: ${date}</desc>
<path d="M2004546 1937785
L2004546 1922785
L2008117 1922785
L2010260 1923500
L2011689 1924928
L2012403 1926357
L2013117 1929214
L2013117 1931357
L2012403 1934214
L2011689 1935642
L2010260 1937071
L2008117 1937785
L2004546 1937785
" />
<path d="M2025975 1937785
L2025975 1929928
L2025260 1928500
L2023832 1927785
L2020975 1927785
L2019546 1928500
" />
<path d="M2025975 1937071
L2024546 1937785
L2020975 1937785
L2019546 1937071
L2018832 1935642
L2018832 1934214
L2019546 1932785
L2020975 1932071
L2024546 1932071
L2025975 1931357
" />
<path d="M2030975 1927785
L2036689 1927785
" />
<path d="M2033117 1922785
L2033117 1935642
L2033832 1937071
L2035260 1937785
L2036689 1937785
" />
<path d="M2047403 1937071
L2045975 1937785
L2043117 1937785
L2041689 1937071
L2040975 1935642
L2040975 1929928
L2041689 1928500
L2043117 1927785
L2045975 1927785
L2047403 1928500
L2048117 1929928
L2048117 1931357
L2040975 1932785
" />
<path d="M2054546 1936357
L2055260 1937071
L2054546 1937785
L2053832 1937071
L2054546 1936357
L2054546 1937785
" />
<path d="M2054546 1928500
L2055260 1929214
L2054546 1929928
L2053832 1929214
L2054546 1928500
L2054546 1929928
" />
<path d="M2072403 1937071
L2074546 1937785
L2078117 1937785
L2079546 1937071
L2080260 1936357
L2080975 1934928
L2080975 1933500
L2080260 1932071
L2079546 1931357
L2078117 1930642
L2075260 1929928
L2073832 1929214
L2073117 1928500
L2072403 1927071
L2072403 1925642
L2073117 1924214
L2073832 1923500
L2075260 1922785
L2078832 1922785
L2080975 1923500
" />
<path d="M2076689 1920642
L2076689 1939928
" />
<path d="M2091689 1943500
L2090975 1943500
L2089546 1942785
L2088832 1941357
L2088832 1934214
L2088117 1932785
L2086689 1932071
L2088117 1931357
L2088832 1929928
L2088832 1922785
L2089546 1921357
L2090975 1920642
L2091689 1920642
" />
<path d="M2103832 1937785
L2103832 1922785
" />
<path d="M2103832 1937071
L2102403 1937785
L2099546 1937785
L2098117 1937071
L2097403 1936357
L2096689 1934928
L2096689 1930642
L2097403 1929214
L2098117 1928500
L2099546 1927785
L2102403 1927785
L2103832 1928500
" />
<path d="M2117403 1937785
L2117403 1929928
L2116689 1928500
L2115260 1927785
L2112403 1927785
L2110975 1928500
" />
<path d="M2117403 1937071
L2115975 1937785
L2112403 1937785
L2110975 1937071
L2110260 1935642
L2110260 1934214
L2110975 1932785
L2112403 1932071
L2115975 1932071
L2117403 1931357
" />
<path d="M2122403 1927785
L2128117 1927785
" />
<path d="M2124546 1922785
L2124546 1935642
L2125260 1937071
L2126689 1937785
L2128117 1937785
" />
<path d="M2138832 1937071
L2137403 1937785
L2134546 1937785
L2133117 1937071
L2132403 1935642
L2132403 1929928
L2133117 1928500
L2134546 1927785
L2137403 1927785
L2138832 1928500
L2139546 1929928
L2139546 1931357
L2132403 1932785
" />
<path d="M2144546 1943500
L2145260 1943500
L2146689 1942785
L2147403 1941357
L2147403 1934214
L2148117 1932785
L2149546 1932071
L2148117 1931357
L2147403 1929928
L2147403 1922785
L2146689 1921357
L2145260 1920642
L2144546 1920642
" />
</g><text x="2860000.000000" y="1856500.000000"
textLength="14950.000000" font-size="17333.330000" lengthAdjust="spacingAndGlyphs"
text-anchor="middle" opacity="0">D</text>
<g class="stroked-text"><desc>D</desc>
<path d="M2856595 1855880
L2856595 1842880
L2859690 1842880
L2861547 1843500
L2862785 1844738
L2863404 1845976
L2864023 1848452
L2864023 1850309
L2863404 1852785
L2862785 1854023
L2861547 1855261
L2859690 1855880
L2856595 1855880
" />
</g><text x="2860000.000000" y="1356500.000000"
textLength="14950.000000" font-size="17333.330000" lengthAdjust="spacingAndGlyphs"
text-anchor="middle" opacity="0">C</text>
<g class="stroked-text"><desc>C</desc>
<path d="M2864023 1354642
L2863404 1355261
L2861547 1355880
L2860309 1355880
L2858452 1355261
L2857214 1354023
L2856595 1352785
L2855976 1350309
L2855976 1348452
L2856595 1345976
L2857214 1344738
L2858452 1343500
L2860309 1342880
L2861547 1342880
L2863404 1343500
L2864023 1344119
" />
</g><text x="2860000.000000" y="856500.000000"
textLength="14950.000000" font-size="17333.330000" lengthAdjust="spacingAndGlyphs"
text-anchor="middle" opacity="0">B</text>
<g class="stroked-text"><desc>B</desc>
<path d="M2860928 849071
L2862785 849690
L2863404 850309
L2864023 851547
L2864023 853404
L2863404 854642
L2862785 855261
L2861547 855880
L2856595 855880
L2856595 842880
L2860928 842880
L2862166 843500
L2862785 844119
L2863404 845357
L2863404 846595
L2862785 847833
L2862166 848452
L2860928 849071
L2856595 849071
" />
</g><text x="2860000.000000" y="356500.000000"
textLength="13092.860000" font-size="17333.330000" lengthAdjust="spacingAndGlyphs"
text-anchor="middle" opacity="0">A</text>
<g class="stroked-text"><desc>A</desc>
<path d="M2856904 352166
L2863095 352166
" />
<path d="M2855666 355880
L2860000 342880
L2864333 355880
" />
</g><path d="M2870000 1600000
L2850000 1600000
" />
<path d="M2870000 1100000
L2850000 1100000
" />
<path d="M2870000 600000
L2850000 600000
" />
<text x="110000.000000" y="1856500.000000"
textLength="14950.000000" font-size="17333.330000" lengthAdjust="spacingAndGlyphs"
text-anchor="middle" opacity="0">D</text>
<g class="stroked-text"><desc>D</desc>
<path d="M106595 1855880
L106595 1842880
L109690 1842880
L111547 1843500
L112785 1844738
L113404 1845976
L114023 1848452
L114023 1850309
L113404 1852785
L112785 1854023
L111547 1855261
L109690 1855880
L106595 1855880
" />
</g><text x="110000.000000" y="1356500.000000"
textLength="14950.000000" font-size="17333.330000" lengthAdjust="spacingAndGlyphs"
text-anchor="middle" opacity="0">C</text>
<g class="stroked-text"><desc>C</desc>
<path d="M114023 1354642
L113404 1355261
L111547 1355880
L110309 1355880
L108452 1355261
L107214 1354023
L106595 1352785
L105976 1350309
L105976 1348452
L106595 1345976
L107214 1344738
L108452 1343500
L110309 1342880
L111547 1342880
L113404 1343500
L114023 1344119
" />
</g><text x="110000.000000" y="856500.000000"
textLength="14950.000000" font-size="17333.330000" lengthAdjust="spacingAndGlyphs"
text-anchor="middle" opacity="0">B</text>
<g class="stroked-text"><desc>B</desc>
<path d="M110928 849071
L112785 849690
L113404 850309
L114023 851547
L114023 853404
L113404 854642
L112785 855261
L111547 855880
L106595 855880
L106595 842880
L110928 842880
L112166 843500
L112785 844119
L113404 845357
L113404 846595
L112785 847833
L112166 848452
L110928 849071
L106595 849071
" />
</g><text x="110000.000000" y="356500.000000"
textLength="13092.860000" font-size="17333.330000" lengthAdjust="spacingAndGlyphs"
text-anchor="middle" opacity="0">A</text>
<g class="stroked-text"><desc>A</desc>
<path d="M106904 352166
L113095 352166
" />
<path d="M105666 355880
L110000 342880
L114333 355880
" />
</g><path d="M100000 1600000
L120000 1600000
" />
<path d="M100000 1100000
L120000 1100000
" />
<path d="M100000 600000
L120000 600000
" />
<text x="2850000.000000" y="1996500.000000"
textLength="14330.950000" font-size="17333.330000" lengthAdjust="spacingAndGlyphs"
text-anchor="start" opacity="0">6</text>
<g class="stroked-text"><desc>6</desc>
<path d="M2859641 1982880
L2857165 1982880
L2855927 1983500
L2855308 1984119
L2854070 1985976
L2853451 1988452
L2853451 1993404
L2854070 1994642
L2854689 1995261
L2855927 1995880
L2858403 1995880
L2859641 1995261
L2860260 1994642
L2860879 1993404
L2860879 1990309
L2860260 1989071
L2859641 1988452
L2858403 1987833
L2855927 1987833
L2854689 1988452
L2854070 1989071
L2853451 1990309
" />
</g><text x="2350000.000000" y="1996500.000000"
textLength="14330.950000" font-size="17333.330000" lengthAdjust="spacingAndGlyphs"
text-anchor="start" opacity="0">5</text>
<g class="stroked-text"><desc>5</desc>
<path d="M2360260 1982880
L2354070 1982880
L2353451 1989071
L2354070 1988452
L2355308 1987833
L2358403 1987833
L2359641 1988452
L2360260 1989071
L2360879 1990309
L2360879 1993404
L2360260 1994642
L2359641 1995261
L2358403 1995880
L2355308 1995880
L2354070 1995261
L2353451 1994642
" />
</g><text x="1850000.000000" y="1996500.000000"
textLength="14330.950000" font-size="17333.330000" lengthAdjust="spacingAndGlyphs"
text-anchor="start" opacity="0">4</text>
<g class="stroked-text"><desc>4</desc>
<path d="M1859641 1987214
L1859641 1995880
" />
<path d="M1856546 1982261
L1853451 1991547
L1861498 1991547
" />
</g><text x="1350000.000000" y="1996500.000000"
textLength="14330.950000" font-size="17333.330000" lengthAdjust="spacingAndGlyphs"
text-anchor="start" opacity="0">3</text>
<g class="stroked-text"><desc>3</desc>
<path d="M1352832 1982880
L1360879 1982880
L1356546 1987833
L1358403 1987833
L1359641 1988452
L1360260 1989071
L1360879 1990309
L1360879 1993404
L1360260 1994642
L1359641 1995261
L1358403 1995880
L1354689 1995880
L1353451 1995261
L1352832 1994642
" />
</g><text x="850000.000000" y="1996500.000000"
textLength="14330.950000" font-size="17333.330000" lengthAdjust="spacingAndGlyphs"
text-anchor="start" opacity="0">2</text>
<g class="stroked-text"><desc>2</desc>
<path d="M853451 1984119
L854070 1983500
L855308 1982880
L858403 1982880
L859641 1983500
L860260 1984119
L860879 1985357
L860879 1986595
L860260 1988452
L852832 1995880
L860879 1995880
" />
</g><text x="350000.000000" y="1996500.000000"
textLength="14330.950000" font-size="17333.330000" lengthAdjust="spacingAndGlyphs"
text-anchor="start" opacity="0">1</text>
<g class="stroked-text"><desc>1</desc>
<path d="M360879 1995880
L353451 1995880
" />
<path d="M357165 1995880
L357165 1982880
L355927 1984738
L354689 1985976
L353451 1986595
" />
</g><path d="M2600000 1980000
L2600000 2000000
" />
<path d="M2100000 1980000
L2100000 2000000
" />
<path d="M1600000 1980000
L1600000 2000000
" />
<path d="M1100000 1980000
L1100000 2000000
" />
<path d="M600000 1980000
L600000 2000000
" />
<text x="2850000.000000" y="116500.000000"
textLength="14330.950000" font-size="17333.330000" lengthAdjust="spacingAndGlyphs"
text-anchor="start" opacity="0">6</text>
<g class="stroked-text"><desc>6</desc>
<path d="M2859641 102880
L2857165 102880
L2855927 103500
L2855308 104119
L2854070 105976
L2853451 108452
L2853451 113404
L2854070 114642
L2854689 115261
L2855927 115880
L2858403 115880
L2859641 115261
L2860260 114642
L2860879 113404
L2860879 110309
L2860260 109071
L2859641 108452
L2858403 107833
L2855927 107833
L2854689 108452
L2854070 109071
L2853451 110309
" />
</g><text x="2350000.000000" y="116500.000000"
textLength="14330.950000" font-size="17333.330000" lengthAdjust="spacingAndGlyphs"
text-anchor="start" opacity="0">5</text>
<g class="stroked-text"><desc>5</desc>
<path d="M2360260 102880
L2354070 102880
L2353451 109071
L2354070 108452
L2355308 107833
L2358403 107833
L2359641 108452
L2360260 109071
L2360879 110309
L2360879 113404
L2360260 114642
L2359641 115261
L2358403 115880
L2355308 115880
L2354070 115261
L2353451 114642
" />
</g><text x="1850000.000000" y="116500.000000"
textLength="14330.950000" font-size="17333.330000" lengthAdjust="spacingAndGlyphs"
text-anchor="start" opacity="0">4</text>
<g class="stroked-text"><desc>4</desc>
<path d="M1859641 107214
L1859641 115880
" />
<path d="M1856546 102261
L1853451 111547
L1861498 111547
" />
</g><text x="1350000.000000" y="116500.000000"
textLength="14330.950000" font-size="17333.330000" lengthAdjust="spacingAndGlyphs"
text-anchor="start" opacity="0">3</text>
<g class="stroked-text"><desc>3</desc>
<path d="M1352832 102880
L1360879 102880
L1356546 107833
L1358403 107833
L1359641 108452
L1360260 109071
L1360879 110309
L1360879 113404
L1360260 114642
L1359641 115261
L1358403 115880
L1354689 115880
L1353451 115261
L1352832 114642
" />
</g><text x="850000.000000" y="116500.000000"
textLength="14330.950000" font-size="17333.330000" lengthAdjust="spacingAndGlyphs"
text-anchor="start" opacity="0">2</text>
<g class="stroked-text"><desc>2</desc>
<path d="M853451 104119
L854070 103500
L855308 102880
L858403 102880
L859641 103500
L860260 104119
L860879 105357
L860879 106595
L860260 108452
L852832 115880
L860879 115880
" />
</g><text x="350000.000000" y="116500.000000"
textLength="14330.950000" font-size="17333.330000" lengthAdjust="spacingAndGlyphs"
text-anchor="start" opacity="0">1</text>
<g class="stroked-text"><desc>1</desc>
<path d="M360879 115880
L353451 115880
" />
<path d="M357165 115880
L357165 102880
L355927 104738
L354689 105976
L353451 106595
" />
</g><path d="M2600000 120000
L2600000 100000
" />
<path d="M2100000 120000
L2100000 100000
" />
<path d="M1600000 120000
L1600000 100000
" />
<path d="M1100000 120000
L1100000 100000
" />
<path d="M600000 120000
L600000 100000
" />
<path d="M120000 120000
L2850000 120000
" />
<path d="M2850000 120000
L2850000 1980000
" />
<path d="M2850000 1980000
L120000 1980000
" />
<path d="M120000 1980000
L120000 120000
" />
<path d="M100000 100000
L2870000 100000
" />
<path d="M2870000 100000
L2870000 2000000
" />
<path d="M2870000 2000000
L100000 2000000
" />
<path d="M100000 2000000
L100000 100000
" />
<path d="M1770000 1660000
L2850000 1660000
" />
<path d="M2850000 1660000
L2850000 1980000
" />
<path d="M2850000 1980000
L1770000 1980000
" />
<path d="M1770000 1980000
L1770000 1660000
" />
<g >
</g>
<g >
</g>
<g >
</g>
<g >
</g>
<g >
</g>
<g >
</g>
<g >
</g>
<g >
</g>
<g >
</g>
<g >
</g>
<g >
</g>
<g >
</g>
<g >
</g>
<g >
</g>
<g >
</g>
<g >
</g>
<g >
</g>
<g >
</g>
<g >
</g>
<g >
</g>
<g >
</g>
<g >
</g>
<g >
</g>
<g >
</g>
<g >
</g>
<g >
</g>
<g >
</g>
<g >
</g>
<g >
</g>
<g >
</g>
<g >
</g>
<g >
</g>
<g >
</g>
<g >
</g>
<g >
</g>
<g >
</g>
<g >
</g>
<g >
</g>
<g >
</g>
<g >
</g>
<g >
</g>
<g >
</g>
<g >
</g>
<g >
</g>
<g >
</g>
<g >
</g>
<g >
</g>
<g >
</g>
<g >
</g>
<g >
</g>
</g> 
</svg>
